<svg width="1605" height="1076" viewBox="0 0 1605 1076" fill="none" xmlns="http://www.w3.org/2000/svg">
<g clip-path="url(#clip0_1551_1083)">
<rect width="1605" height="1076" fill="white"/>
<rect width="1605" height="1076" fill="white"/>
<rect width="1198.89" height="2486.74" transform="matrix(0.866041 0.499972 -0.866041 0.499972 947.36 -789.46)" fill="#F8F8F8"/>
<rect x="36" y="-59" width="12" height="992" fill="white"/>
<rect x="88" y="-59" width="12" height="992" fill="white"/>
<rect x="140" y="-59" width="12" height="992" fill="white"/>
<rect x="192" y="-59" width="12" height="992" fill="white"/>
<rect x="244" y="-59" width="12" height="992" fill="white"/>
<rect x="296" y="-59" width="12" height="992" fill="white"/>
<rect x="348" y="-59" width="12" height="992" fill="white"/>
<rect x="400" y="-59" width="12" height="992" fill="white"/>
<rect x="452" y="-59" width="12" height="992" fill="white"/>
<rect x="504" y="-59" width="12" height="992" fill="white"/>
<rect x="556" y="-59" width="12" height="992" fill="white"/>
<rect x="608" y="-59" width="12" height="992" fill="white"/>
<rect x="660" y="-59" width="12" height="992" fill="white"/>
<rect x="712" y="-59" width="12" height="992" fill="white"/>
<rect x="764" y="-59" width="12" height="992" fill="white"/>
<rect x="816" y="-59" width="12" height="992" fill="white"/>
<rect x="868" y="-59" width="12" height="992" fill="white"/>
<rect x="920" y="-59" width="12" height="992" fill="white"/>
<rect x="972" y="-59" width="12" height="992" fill="white"/>
<rect x="1024" y="-59" width="12" height="992" fill="white"/>
<rect x="1076" y="-59" width="12" height="992" fill="white"/>
<rect x="1128" y="-59" width="12" height="992" fill="white"/>
<rect x="1180" y="-59" width="12" height="992" fill="white"/>
<rect x="1232" y="-59" width="12" height="992" fill="white"/>
<rect x="1284" y="-59" width="12" height="992" fill="white"/>
<rect x="1336" y="-59" width="12" height="992" fill="white"/>
<rect x="1388" y="-59" width="12" height="992" fill="white"/>
<rect x="1440" y="-59" width="12" height="992" fill="white"/>
<rect x="1492" y="-59" width="12" height="992" fill="white"/>
<rect x="1544" y="-59" width="12" height="992" fill="white"/>
<rect x="1596" y="-59" width="12" height="992" fill="white"/>
<rect width="11.9988" height="1977.08" transform="matrix(0.866041 0.499972 -0.866041 0.499972 1644.23 58.2383)" fill="#E6E6E6"/>
<rect width="11.9988" height="1977.08" transform="matrix(0.866041 0.499972 -0.866041 0.499972 1644.23 113.724)" fill="#E6E6E6"/>
<rect width="11.9988" height="1977.08" transform="matrix(0.866041 0.499972 -0.866041 0.499972 1644.23 169.209)" fill="#E6E6E6"/>
<rect width="11.9988" height="1977.08" transform="matrix(0.866041 0.499972 -0.866041 0.499972 1644.23 224.694)" fill="#E6E6E6"/>
<rect width="11.9988" height="1977.08" transform="matrix(0.866041 0.499972 -0.866041 0.499972 1644.23 280.18)" fill="#E6E6E6"/>
<rect width="11.9988" height="1977.08" transform="matrix(0.866041 0.499972 -0.866041 0.499972 1644.23 335.665)" fill="#E6E6E6"/>
<rect width="11.9988" height="1977.08" transform="matrix(0.866041 0.499972 -0.866041 0.499972 1644.23 391.15)" fill="#E6E6E6"/>
<rect width="11.9988" height="1977.08" transform="matrix(0.866041 0.499972 -0.866041 0.499972 1644.23 446.636)" fill="#E6E6E6"/>
<rect width="11.9988" height="1977.08" transform="matrix(0.866041 0.499972 -0.866041 0.499972 1644.23 502.121)" fill="#E6E6E6"/>
<rect width="11.9988" height="1977.08" transform="matrix(0.866041 0.499972 -0.866041 0.499972 1644.23 557.606)" fill="#E6E6E6"/>
<rect width="11.9988" height="1977.08" transform="matrix(0.866041 0.499972 -0.866041 0.499972 1644.23 613.092)" fill="#E6E6E6"/>
<rect width="11.9988" height="1977.08" transform="matrix(0.866041 0.499972 -0.866041 0.499972 1644.23 668.577)" fill="#E6E6E6"/>
<rect width="11.9988" height="1977.08" transform="matrix(0.866041 0.499972 -0.866041 0.499972 1644.23 724.062)" fill="#E6E6E6"/>
<rect width="11.9988" height="1977.08" transform="matrix(0.866041 0.499972 -0.866041 0.499972 1644.23 779.548)" fill="#E6E6E6"/>
<rect width="11.9988" height="1977.08" transform="matrix(0.866041 0.499972 -0.866041 0.499972 1644.23 835.033)" fill="#E6E6E6"/>
<rect width="11.9988" height="1977.08" transform="matrix(0.866041 0.499972 -0.866041 0.499972 1644.23 890.519)" fill="#E6E6E6"/>
<rect width="11.9988" height="1977.08" transform="matrix(0.866041 0.499972 -0.866041 0.499972 1644.23 950.519)" fill="#E6E6E6"/>
<rect width="11.9988" height="1977.08" transform="matrix(0.866041 0.499972 -0.866041 0.499972 1644.23 1010.52)" fill="#E6E6E6"/>
<g clip-path="url(#clip1_1551_1083)">
<rect width="219.014" height="129.426" transform="matrix(0.866041 0.499972 -0.866041 0.499972 767.266 709.74)" fill="#A9A38E"/>
<rect width="72.0057" height="72.0057" transform="matrix(0.86601 0.500028 3.18535e-05 1 502.083 650.021)" fill="#44374E"/>
<rect width="72.0057" height="72.0057" transform="matrix(0.86601 0.500028 3.18535e-05 1 502.086 722.026)" fill="#44374E"/>
<rect width="72.0057" height="72.0057" transform="matrix(0.86601 0.500028 3.18535e-05 1 502.088 794.031)" fill="#44374E"/>
<rect width="72.0057" height="72.0057" transform="matrix(0.86601 0.500028 3.18535e-05 1 564.44 686.026)" fill="#44374E"/>
<rect width="72.0057" height="72.0057" transform="matrix(0.86601 0.500028 3.18535e-05 1 564.443 758.03)" fill="#44374E"/>
<rect width="72.0057" height="72.0057" transform="matrix(0.86601 0.500028 3.18535e-05 1 564.446 830.037)" fill="#44374E"/>
<rect width="72.0057" height="72.0057" transform="matrix(0.86601 0.500028 3.18535e-05 1 626.799 722.03)" fill="#44374E"/>
<rect width="72.0057" height="72.0057" transform="matrix(0.86601 0.500028 3.18535e-05 1 626.801 794.035)" fill="#44374E"/>
<rect width="72.0057" height="72.0057" transform="matrix(0.86601 0.500028 3.18535e-05 1 626.803 866.041)" fill="#44374E"/>
<rect width="72.0057" height="72.0057" transform="matrix(0.86601 -0.500028 -3.18535e-05 1 689.24 758.035)" fill="#FFDD5C"/>
<rect width="72.0057" height="72.0057" transform="matrix(0.86601 -0.500028 -3.18535e-05 1 689.239 830.041)" fill="#FFDD5C"/>
<rect width="72.0057" height="72.0057" transform="matrix(0.86601 -0.500028 -3.18535e-05 1 689.236 902.046)" fill="#FFDD5C"/>
<rect width="72.0057" height="72.0057" transform="matrix(0.86601 -0.500028 -3.18535e-05 1 751.598 722.031)" fill="#FFDD5C"/>
<rect width="72.0057" height="72.0057" transform="matrix(0.86601 -0.500028 -3.18535e-05 1 751.596 794.036)" fill="#FFDD5C"/>
<rect width="72.0057" height="72.0057" transform="matrix(0.86601 -0.500028 -3.18535e-05 1 751.594 866.042)" fill="#FFDD5C"/>
<rect width="72.0057" height="72.0057" transform="matrix(0.86601 -0.500028 -3.18535e-05 1 813.956 686.025)" fill="#FFDD5C"/>
<rect width="72.0057" height="72.0057" transform="matrix(0.86601 -0.500028 -3.18535e-05 1 813.954 758.031)" fill="#FFDD5C"/>
<rect width="72.0057" height="72.0057" transform="matrix(0.86601 -0.500028 -3.18535e-05 1 813.951 830.037)" fill="#FFDD5C"/>
<rect width="72.0057" height="72.0057" transform="matrix(0.866041 -0.499972 0.866041 0.499972 502 650.003)" fill="#AA7AD1"/>
<rect width="72.0057" height="72.0057" transform="matrix(0.866041 -0.499972 0.866041 0.499972 564.36 686.004)" fill="#AA7AD1"/>
<rect width="72.0057" height="72.0057" transform="matrix(0.866041 -0.499972 0.866041 0.499972 626.721 722.005)" fill="#AA7AD1"/>
<rect width="72.0057" height="72.0057" transform="matrix(0.866041 -0.499972 0.866041 0.499972 564.36 614.002)" fill="#AA7AD1"/>
<rect width="72.0057" height="72.0057" transform="matrix(0.866041 -0.499972 0.866041 0.499972 626.721 650.003)" fill="#AA7AD1"/>
<rect width="72.0057" height="72.0057" transform="matrix(0.866041 -0.499972 0.866041 0.499972 689.079 686.004)" fill="#AA7AD1"/>
<rect width="72.0057" height="72.0057" transform="matrix(0.866041 -0.499972 0.866041 0.499972 626.721 578.001)" fill="#AA7AD1"/>
<rect width="72.0057" height="72.0057" transform="matrix(0.866041 -0.499972 0.866041 0.499972 689.079 614.002)" fill="#AA7AD1"/>
<rect width="72.0057" height="72.0057" transform="matrix(0.866041 -0.499972 0.866041 0.499972 751.44 650.003)" fill="#AA7AD1"/>
<rect width="219.014" height="181.243" transform="matrix(0.866041 0.499972 -0.866041 0.499972 1290.14 549.833)" fill="#A9A38E"/>
<rect width="72.0057" height="72.0057" transform="matrix(0.86601 0.500028 3.18535e-05 1 980.083 516.021)" fill="#00C9A5"/>
<rect width="72.0057" height="72.0057" transform="matrix(0.86601 0.500028 3.18535e-05 1 980.086 588.026)" fill="#00C9A5"/>
<rect width="72.0057" height="72.0057" transform="matrix(0.86601 0.500028 3.18535e-05 1 980.088 660.031)" fill="#00C9A5"/>
<rect width="72.0057" height="72.0057" transform="matrix(0.86601 0.500028 3.18535e-05 1 1042.44 552.026)" fill="#00C9A5"/>
<rect width="72.0057" height="72.0057" transform="matrix(0.86601 0.500028 3.18535e-05 1 1042.44 624.03)" fill="#00C9A5"/>
<rect width="72.0057" height="72.0057" transform="matrix(0.86601 0.500028 3.18535e-05 1 1042.45 696.037)" fill="#00C9A5"/>
<rect width="72.0057" height="72.0057" transform="matrix(0.86601 0.500028 3.18535e-05 1 1104.8 588.03)" fill="#00C9A5"/>
<rect width="72.0057" height="72.0057" transform="matrix(0.86601 0.500028 3.18535e-05 1 1104.8 660.035)" fill="#00C9A5"/>
<rect width="72.0057" height="72.0057" transform="matrix(0.86601 0.500028 3.18535e-05 1 1104.8 732.041)" fill="#00C9A5"/>
<rect width="72.0057" height="72.0057" transform="matrix(0.86601 -0.500028 -3.18535e-05 1 1167.24 624.035)" fill="#FFDD5C"/>
<rect width="72.0057" height="72.0057" transform="matrix(0.86601 -0.500028 -3.18535e-05 1 1167.24 696.041)" fill="#FFDD5C"/>
<rect width="72.0057" height="72.0057" transform="matrix(0.86601 -0.500028 -3.18535e-05 1 1167.24 768.046)" fill="#FFDD5C"/>
<rect width="72.0057" height="72.0057" transform="matrix(0.86601 -0.500028 -3.18535e-05 1 1229.6 588.031)" fill="#FFDD5C"/>
<rect width="72.0057" height="72.0057" transform="matrix(0.86601 -0.500028 -3.18535e-05 1 1229.6 660.036)" fill="#FFDD5C"/>
<rect width="72.0057" height="72.0057" transform="matrix(0.86601 -0.500028 -3.18535e-05 1 1229.59 732.042)" fill="#FFDD5C"/>
<rect width="72.0057" height="72.0057" transform="matrix(0.86601 -0.500028 -3.18535e-05 1 1291.96 552.025)" fill="#FFDD5C"/>
<rect width="72.0057" height="72.0057" transform="matrix(0.86601 -0.500028 -3.18535e-05 1 1291.95 624.031)" fill="#FFDD5C"/>
<rect width="72.0057" height="72.0057" transform="matrix(0.86601 -0.500028 -3.18535e-05 1 1291.95 696.037)" fill="#FFDD5C"/>
<rect width="72.0057" height="72.0057" transform="matrix(0.866041 -0.499972 0.866041 0.499972 980 516.003)" fill="#AA7AD1"/>
<rect width="72.0057" height="72.0057" transform="matrix(0.866041 -0.499972 0.866041 0.499972 1042.36 552.004)" fill="#AA7AD1"/>
<rect width="72.0057" height="72.0057" transform="matrix(0.866041 -0.499972 0.866041 0.499972 1104.72 588.005)" fill="#AA7AD1"/>
<rect width="72.0057" height="72.0057" transform="matrix(0.866041 -0.499972 0.866041 0.499972 1042.36 480.002)" fill="#AA7AD1"/>
<rect width="72.0057" height="72.0057" transform="matrix(0.866041 -0.499972 0.866041 0.499972 1104.72 516.003)" fill="#AA7AD1"/>
<rect width="72.0057" height="72.0057" transform="matrix(0.866041 -0.499972 0.866041 0.499972 1167.08 552.004)" fill="#AA7AD1"/>
<rect width="72.0057" height="72.0057" transform="matrix(0.866041 -0.499972 0.866041 0.499972 1104.72 444.001)" fill="#AA7AD1"/>
<rect width="72.0057" height="72.0057" transform="matrix(0.866041 -0.499972 0.866041 0.499972 1167.08 480.002)" fill="#AA7AD1"/>
<rect width="72.0057" height="72.0057" transform="matrix(0.866041 -0.499972 0.866041 0.499972 1229.44 516.003)" fill="#AA7AD1"/>
<rect width="72.0057" height="72.0057" transform="matrix(0.86601 0.500028 3.18535e-05 1 980.083 300.021)" fill="#F9524C"/>
<rect width="72.0057" height="72.0057" transform="matrix(0.86601 0.500028 3.18535e-05 1 980.086 372.026)" fill="#F9524C"/>
<rect width="72.0057" height="72.0057" transform="matrix(0.86601 0.500028 3.18535e-05 1 980.088 444.031)" fill="#F9524C"/>
<rect width="72.0057" height="72.0057" transform="matrix(0.86601 0.500028 3.18535e-05 1 1042.44 336.026)" fill="#F9524C"/>
<rect width="72.0057" height="72.0057" transform="matrix(0.86601 0.500028 3.18535e-05 1 1042.44 408.03)" fill="#F9524C"/>
<rect width="72.0057" height="72.0057" transform="matrix(0.86601 0.500028 3.18535e-05 1 1042.45 480.037)" fill="#F9524C"/>
<rect width="72.0057" height="72.0057" transform="matrix(0.86601 0.500028 3.18535e-05 1 1104.8 372.03)" fill="#F9524C"/>
<rect width="72.0057" height="72.0057" transform="matrix(0.86601 0.500028 3.18535e-05 1 1104.8 444.035)" fill="#F9524C"/>
<rect width="72.0057" height="72.0057" transform="matrix(0.86601 0.500028 3.18535e-05 1 1104.8 516.041)" fill="#F9524C"/>
<rect width="72.0057" height="72.0057" transform="matrix(0.86601 -0.500028 -3.18535e-05 1 1167.24 408.035)" fill="#DAACFF"/>
<rect width="72.0057" height="72.0057" transform="matrix(0.86601 -0.500028 -3.18535e-05 1 1167.24 480.041)" fill="#DAACFF"/>
<rect width="72.0057" height="72.0057" transform="matrix(0.86601 -0.500028 -3.18535e-05 1 1167.24 552.046)" fill="#DAACFF"/>
<rect width="72.0057" height="72.0057" transform="matrix(0.86601 -0.500028 -3.18535e-05 1 1229.6 372.031)" fill="#DAACFF"/>
<rect width="72.0057" height="72.0057" transform="matrix(0.86601 -0.500028 -3.18535e-05 1 1229.6 444.036)" fill="#DAACFF"/>
<rect width="72.0057" height="72.0057" transform="matrix(0.86601 -0.500028 -3.18535e-05 1 1229.59 516.042)" fill="#DAACFF"/>
<rect width="72.0057" height="72.0057" transform="matrix(0.86601 -0.500028 -3.18535e-05 1 1291.96 336.025)" fill="#DAACFF"/>
<rect width="72.0057" height="72.0057" transform="matrix(0.86601 -0.500028 -3.18535e-05 1 1291.95 408.031)" fill="#DAACFF"/>
<rect width="72.0057" height="72.0057" transform="matrix(0.86601 -0.500028 -3.18535e-05 1 1291.95 480.037)" fill="#DAACFF"/>
<rect width="72.0057" height="72.0057" transform="matrix(0.866041 -0.499972 0.866041 0.499972 980 300.003)" fill="#FFC900"/>
<rect width="72.0057" height="72.0057" transform="matrix(0.866041 -0.499972 0.866041 0.499972 1042.36 336.004)" fill="#FFC900"/>
<rect width="72.0057" height="72.0057" transform="matrix(0.866041 -0.499972 0.866041 0.499972 1104.72 372.005)" fill="#FFC900"/>
<rect width="72.0057" height="72.0057" transform="matrix(0.866041 -0.499972 0.866041 0.499972 1042.36 264.002)" fill="#FFC900"/>
<rect width="72.0057" height="72.0057" transform="matrix(0.866041 -0.499972 0.866041 0.499972 1104.72 300.003)" fill="#FFC900"/>
<rect width="72.0057" height="72.0057" transform="matrix(0.866041 -0.499972 0.866041 0.499972 1167.08 336.004)" fill="#FFC900"/>
<rect width="72.0057" height="72.0057" transform="matrix(0.866041 -0.499972 0.866041 0.499972 1104.72 228.001)" fill="#FFC900"/>
<rect width="72.0057" height="72.0057" transform="matrix(0.866041 -0.499972 0.866041 0.499972 1167.08 264.002)" fill="#FFC900"/>
<rect width="72.0057" height="72.0057" transform="matrix(0.866041 -0.499972 0.866041 0.499972 1229.44 300.003)" fill="#FFC900"/>
</g>
</g>
<defs>
<clipPath id="clip0_1551_1083">
<rect width="1605" height="1076" fill="white"/>
</clipPath>
<clipPath id="clip1_1551_1083">
<rect width="978" height="783" fill="white" transform="translate(502 192)"/>
</clipPath>
</defs>
</svg>
